<svg xmlns="http://www.w3.org/2000/svg" width="1833" height="1833" viewBox="0 0 1833 1833"><path fill="#fff" fill-rule="evenodd" d="m710.76 591.25-.26 346.25-2.392 6c-8.371 20.997-28.552 36.393-63.454 48.411-85.554 29.457-259.101 32.315-340.277 5.603-20.071-6.605-32.113-13.195-41.987-22.979-6.31-6.251-8.64-9.367-10.5-14.035l-2.39-6-.262-156.25-.263-156.25H0v185.593c0 182.229.037 185.772 2.019 195.499 14.532 71.312 75.975 128.076 180.991 167.21 99.835 37.203 237.319 55.196 352.99 46.198 95.677-7.443 185.884-27.56 253.672-56.571 15.928-6.817 45.476-22.042 58.164-29.97 23.887-14.927 49.281-36.522 64.747-55.06 25.267-30.287 39.921-65.801 43.409-105.2.622-7.036.994-105.531.999-264.949L957 471h294.29c261.173 0 294.952.173 300.175 1.533 20.522 5.345 33.614 23.342 39.187 53.869 2.227 12.197 2.247 39.611.038 52.61-6.053 35.614-19.7 55.646-41.946 61.568-4.417 1.176-42.799 1.398-243.494 1.408-131.037.007-238.25.236-238.25.511 0 .274 21.268 27.161 47.261 59.75s78.757 98.802 117.25 147.143c38.494 48.341 118.961 149.253 178.815 224.25L1519.151 1210h157.116c125.849 0 156.808-.249 155.571-1.25-1.596-1.291-275.838-346.469-275.838-347.186 0-.222 24.862-.596 55.25-.833 60.645-.472 62.257-.618 80.75-7.279 28.427-10.24 53.847-31.883 74.654-63.562 31.096-47.344 53.99-122.529 62.846-206.39.813-7.7 1.483-16.587 1.489-19.75s.461-5.75 1.011-5.75c.621 0 1-5.5 1-14.5 0-7.975-.382-14.5-.85-14.5s-1.154-5.024-1.527-11.165-1.362-16.153-2.197-22.25c-11.112-81.104-35.243-146.316-70.165-189.619-8.173-10.134-25.028-26.15-35.04-33.297-15.938-11.375-37.393-20.544-56.609-24.191-4.339-.824-14.014-1.939-21.5-2.479-8.609-.621-182.786-.985-473.852-.99L711.02 245zM1002 1330.48V1341H886.952l.274 16.75.274 16.75 57.25.258 57.25.258v8.966l-52.75.259-52.75.259v122l25.77.5 25.769.5-2.98 3.614c-9.105 11.042-31.504 23.941-50.943 29.34l-7.616 2.115-.272 19.215-.271 19.216h3.848c8.024 0 32.86-8.288 48.63-16.227 22.94-11.55 46.181-30.346 58.877-47.616l4.663-6.343.263 36.843.262 36.843h42v-37.25c0-20.488.073-37.25.162-37.25s2.176 2.813 4.636 6.25c18.381 25.68 54.347 49.837 90.702 60.922 5.225 1.593 12.088 3.17 15.25 3.505l5.75.608v-38.899l-7.25-1.873c-11.842-3.059-26.47-9.537-35.75-15.831-2.475-1.679-7.801-6.231-11.835-10.117l-7.335-7.065 25.835-.5 25.835-.5v-122l-53.007-.259-53.006-.258.357-4.483.356-4.484 57.15-.258 57.15-.258.274-16.75.274-16.75-57.774.001-57.774.002V1320.5l-21.25-.27-21.25-.27zm189 16.903c0 19.508.153 21.428 1.75 21.883 13.789 3.938 54.428 15.865 55.638 16.329 1.452.558 1.612-1.52 1.612-20.929 0-11.851-.399-21.795-.887-22.096-.487-.301-4.875-1.629-9.75-2.95s-17.515-4.925-28.09-8.011-19.462-5.609-19.75-5.609c-.287 0-.523 9.623-.523 21.383m104.329-20.133c-.504.688-2.603 4.653-4.665 8.813-4.642 9.365-15.766 23.343-23.616 29.672l-5.91 4.765-.069 22.75c-.051 16.709.241 22.75 1.098 22.75.642 0 4.017-1.566 7.5-3.481l6.333-3.481V1468h-19v37h19v77h172v-77h14v-37h-14v-69h-158.077l9.077-9 9.077-9H1456v-37h-122.928l3.936-8.14c2.165-4.477 3.698-8.527 3.405-9-.896-1.451-44.008-1.078-45.084.39M539 1421.851c0 66.926-.309 91.746-1.174 94.25-2.675 7.75-10.123 13.848-22.025 18.034-5.722 2.012-8.65 2.254-31.867 2.626-19.648.314-27.565.064-34.204-1.082-14.855-2.563-24.798-8.488-28.83-17.179-1.648-3.552-1.859-6.773-1.878-28.75L419 1465h-48v27.912c0 31.84.913 39.04 6.399 50.444 8.849 18.4 31.307 34.253 53.372 37.676 4.497.698 23.183.955 52.843.727 40.111-.309 46.641-.574 51.886-2.108 14.124-4.13 28.005-13.113 35.815-23.176 5.817-7.497 11.519-20.022 13.91-30.555 2.084-9.184 2.147-11.739 2.513-102.17l.375-92.75H539zm82.246 35.399.254 125.25h46l.26-48.25.259-48.25h59.309c65.739 0 66.434.06 72.399 6.223 6.251 6.458 6.273 6.639 6.273 50.745V1583h49.275l-.589-42.75c-.624-45.224-1.399-53.846-5.576-62.035-3.137-6.148-7.82-11.034-13.824-14.423l-5.334-3.01 4.274-2.764c6.355-4.11 11.328-9.786 14.472-16.518l2.802-6v-64l-3.106-6.5c-7.458-15.606-23.89-27.13-44.86-31.461-6.374-1.317-20.093-1.539-94.996-1.539h-87.546zM669 1408v32l59.75-.01 59.75-.01 5.24-2.439c3.91-1.821 6.004-3.644 8.25-7.186l3.01-4.747v-17.353c0-13.998-.313-17.973-1.617-20.555-2.282-4.517-5.294-7.592-9.593-9.797-3.527-1.809-6.709-1.903-64.25-1.903H669zm522.23 12.179.27 21.178 2.5.707c6.949 1.963 54.2 16.076 55.516 16.581 1.341.514 1.491-2.026 1.254-21.197l-.27-21.781-11-3.209a4094 4094 0 0 1-19.754-5.821c-19.355-5.774-26.034-7.637-27.378-7.637-1.175 0-1.363 3.507-1.138 21.179M940 1423v6h63v-12h-63zm105 0v6h63v-12h-63zm274 28.75v15.75h25V1436h-25zm63-.25v15.5h26v-31h-26zm-442 16v5.5h63v-11h-63zm105 0v5.5h63v-11h-63zm200.462 23.582c-12.013 12.301-36.35 32.692-48.29 40.459l-6.085 3.959-.044 26.25c-.024 14.438.341 26.25.81 26.25 1.495 0 22.93-15.679 31.95-23.37 4.784-4.078 13.085-11.9 18.447-17.382l9.75-9.968v-25.64c0-14.102-.354-25.64-.788-25.64-.433 0-3.02 2.287-5.75 5.082M1319 1524.5v19.5h25v-39h-25zm63 0v19.5h26v-39h-26z"/></svg>